<?xml version="1.0" standalone="no"?>
<!DOCTYPE svg PUBLIC "-//W3C//DTD SVG 20010904//EN"
 "http://www.w3.org/TR/2001/REC-SVG-20010904/DTD/svg10.dtd">
<svg version="1.0" xmlns="http://www.w3.org/2000/svg"
 width="200.000000pt" height="200.000000pt" viewBox="0 0 200.000000 200.000000"
 preserveAspectRatio="xMidYMid meet">
<metadata>
Created by potrace 1.11, written by Peter Selinger 2001-2013
</metadata>
<g transform="translate(0.000000,200.000000) scale(0.100000,-0.100000)"
fill="#000000" stroke="none">
<path d="M0 1470 l0 -530 159 0 160 0 4 -32 4 -33 1 34 c2 33 3 33 38 28 l35
-6 -26 21 c-34 26 -106 138 -102 158 2 11 14 14 47 13 25 -1 40 1 34 5 -17 11
-34 48 -34 74 -1 23 -1 23 -23 -4 -25 -31 -52 -36 -61 -12 -3 9 -6 38 -6 65 0
38 4 51 18 56 9 4 25 18 36 31 12 16 27 22 44 20 14 -2 27 3 29 10 3 6 -3 12
-11 12 -9 0 -19 7 -22 15 -4 8 -17 15 -30 15 -32 0 -31 25 1 73 25 36 48 47
60 27 16 -26 92 48 87 85 -2 18 5 26 38 39 73 29 99 19 74 -28 -19 -37 -19
-38 16 -18 16 9 30 22 30 29 0 22 35 31 105 29 75 -3 135 -26 135 -52 0 -15
-65 -49 -87 -45 -7 1 -13 -4 -13 -10 0 -7 3 -9 7 -6 3 4 15 0 25 -10 11 -9 18
-11 18 -5 0 7 6 12 14 12 8 0 16 7 20 15 8 21 50 19 71 -5 10 -11 20 -18 23
-15 3 3 11 0 18 -6 8 -6 28 -12 46 -14 18 -1 50 -5 70 -9 60 -11 117 -12 115
-2 -1 6 5 11 13 11 8 1 40 13 70 28 76 37 104 35 146 -9 51 -55 46 -77 -33
-151 -37 -34 -69 -60 -71 -58 -3 3 18 27 46 54 48 44 68 72 40 55 -7 -4 -8 -3
-4 5 4 6 12 8 18 5 11 -7 28 13 28 32 0 12 -73 10 -135 -3 -16 -3 -77 -7 -135
-8 -82 -2 -113 1 -141 15 l-37 17 20 -34 c29 -49 19 -66 -36 -58 -24 4 -46 3
-48 -2 -2 -4 3 -30 13 -56 l16 -49 20 26 c12 14 27 26 35 26 20 0 38 -21 38
-43 0 -17 5 -19 48 -12 26 5 74 9 107 11 33 1 65 3 72 3 6 1 14 9 16 19 4 13
5 13 6 -4 0 -12 -6 -27 -14 -34 -27 -22 -70 -93 -100 -163 -15 -37 -33 -71
-39 -75 -11 -7 -126 -5 -134 3 -2 2 -15 -9 -29 -26 -20 -23 -28 -27 -39 -18
-8 6 -14 20 -14 30 0 11 -4 19 -9 19 -18 0 -22 -19 -9 -39 10 -17 9 -25 -12
-53 -13 -18 -16 -27 -7 -19 9 7 17 10 17 5 0 -5 7 0 15 10 12 16 15 16 15 4 0
-11 11 -15 40 -15 22 0 41 4 41 9 1 4 3 13 4 18 1 6 3 15 4 20 0 6 6 10 12 10
7 0 9 -10 5 -27 -4 -19 -3 -23 2 -14 5 7 12 9 14 5 3 -5 3 -3 2 3 -2 7 8 24
21 39 l24 26 -2 -24 c-5 -47 -140 -258 -166 -258 -19 0 -61 -51 -61 -73 0 -11
-7 -12 -35 -3 -37 11 -37 13 -75 154 -6 23 -16 42 -22 42 -6 0 -27 12 -46 27
-33 25 -34 27 -16 40 16 12 20 11 30 -8 11 -21 11 -21 22 11 11 31 11 32 -11
25 -12 -4 -34 -9 -49 -12 -33 -6 -35 -14 -8 -38 11 -10 20 -24 20 -32 0 -8 5
-11 10 -8 6 3 10 1 10 -4 0 -6 5 -10 12 -8 7 1 19 -26 30 -63 32 -116 32 -117
9 -125 -12 -3 -21 -11 -21 -16 0 -5 -7 -9 -15 -9 -19 0 39 -93 81 -129 18 -15
39 -48 49 -78 11 -29 22 -53 25 -53 15 0 18 13 10 43 -19 69 -21 107 -6 101
16 -6 26 -36 26 -81 0 -39 28 -100 49 -108 19 -7 95 70 104 105 4 14 41 59 83
100 53 53 84 93 105 138 28 60 57 85 46 40 -4 -13 -11 -57 -17 -98 -6 -41 -29
-176 -50 -300 -21 -124 -41 -249 -45 -277 l-6 -53 85 0 c58 0 86 4 89 13 4 9
6 9 6 0 1 -8 16 -13 42 -13 24 0 38 4 34 10 -3 6 0 10 7 10 10 0 9 3 -2 10 -8
5 -11 12 -7 16 3 4 13 1 21 -5 9 -7 17 -8 20 -2 3 5 0 12 -6 14 -7 3 -2 6 11
6 20 1 21 -1 11 -14 -7 -8 -10 -21 -7 -30 5 -12 33 -14 159 -14 145 1 154 2
166 23 13 20 13 20 9 0 -4 -19 1 -20 79 -22 55 -2 85 1 90 9 4 8 3 9 -4 5 -16
-10 -15 16 1 33 10 11 9 12 -2 6 -10 -6 -12 -4 -6 5 4 7 2 16 -6 21 -11 7 -10
9 4 9 9 0 17 4 17 9 0 5 -8 8 -17 7 -23 -1 -19 33 5 53 16 13 16 13 0 8 -15
-5 -16 -2 -8 19 13 33 13 32 -7 37 -15 4 -15 5 2 6 18 2 18 3 -5 17 -23 14
-23 14 -2 9 13 -4 22 -2 22 4 0 6 -7 11 -16 11 -14 0 -14 1 0 16 9 8 14 19 11
24 -3 5 -2 11 3 14 5 3 9 -7 9 -22 2 -67 16 -231 23 -267 4 -22 6 276 6 662
-1 618 -3 703 -16 703 -8 0 -26 3 -40 6 -24 5 -24 5 -6 -10 11 -9 17 -18 15
-21 -3 -3 -14 3 -25 13 -11 10 -32 27 -47 36 -15 10 -27 22 -27 26 0 4 33 7
73 6 l73 -1 2 33 3 32 -71 0 c-40 0 -69 4 -66 9 4 5 18 8 34 5 15 -2 44 -1 65
2 30 5 37 10 37 27 0 20 -6 22 -47 22 -27 1 -77 7 -113 14 -36 7 -85 14 -109
15 -47 1 -61 15 -37 35 30 25 180 30 206 7 8 -8 34 -17 56 -21 l42 -6 1 95 1
96 -135 0 c-74 0 -135 2 -135 5 0 3 9 18 20 33 13 17 18 35 14 45 -11 30 -107
51 -230 49 -162 -1 -226 -23 -179 -62 8 -7 15 -23 15 -35 0 -21 -7 -24 -67
-34 -38 -5 -216 -13 -397 -16 -270 -5 -327 -4 -320 7 5 7 7 25 5 39 -2 21 4
30 28 42 28 14 31 14 32 -1 0 -14 2 -14 6 -2 3 8 12 23 21 32 8 10 12 24 9 33
-7 17 -27 21 -27 4 0 -5 5 -7 10 -4 6 3 10 -1 10 -9 0 -20 -1 -20 -36 -1 -48
25 -69 18 -39 -12 16 -16 12 -33 -8 -33 -12 0 -17 64 -6 74 2 2 111 7 242 11
191 5 241 4 254 -7 11 -8 14 -9 10 -1 -5 8 7 13 40 15 27 2 -88 5 -254 6 -200
2 -303 -1 -303 -8 0 -5 -8 -10 -17 -10 -15 0 -16 2 -3 10 10 6 -83 10 -272 10
l-288 0 0 -530z m1723 443 c5 -3 -5 -14 -23 -24 -17 -11 -33 -25 -36 -33 -4
-10 -24 -14 -71 -14 -36 0 -59 4 -52 8 6 5 23 6 36 4 18 -3 23 -1 17 8 -5 10
-4 11 7 1 18 -18 34 -16 20 1 -9 11 -8 17 4 29 19 20 19 24 -2 31 -10 3 6 3
36 0 30 -3 59 -8 64 -11z m-153 -17 c0 -3 -4 -8 -10 -11 -5 -3 -10 -1 -10 4 0
6 5 11 10 11 6 0 10 -2 10 -4z m-117 -73 c-7 -2 -19 -2 -25 0 -7 3 -2 5 12 5
14 0 19 -2 13 -5z m90 0 c-13 -2 -35 -2 -50 0 -16 2 -5 4 22 4 28 0 40 -2 28
-4z m107 -9 c0 -2 -16 -4 -35 -4 -19 0 -35 4 -35 8 0 4 16 6 35 4 19 -2 35 -6
35 -8z m-1153 -26 c-3 -8 -6 -5 -6 6 -1 11 2 17 5 13 3 -3 4 -12 1 -19z m1263
12 c17 -6 9 -7 -25 -3 -27 3 -52 7 -54 9 -8 7 54 2 79 -6z m-1285 -29 c3 -5 1
-12 -5 -16 -5 -3 -10 1 -10 9 0 18 6 21 15 7z m1074 -22 c20 -58 -41 -141
-113 -155 -43 -8 -79 10 -71 36 3 10 1 21 -4 25 -10 5 -93 -13 -133 -30 -35
-14 -17 12 23 34 32 18 51 22 86 18 28 -3 40 -1 32 4 -12 7 -11 11 2 25 15 15
19 13 52 -20 21 -21 46 -36 59 -36 16 0 19 3 10 9 -11 6 -10 9 5 13 10 3 25
17 33 32 14 26 13 29 -10 48 -16 13 -32 17 -48 13 -15 -4 -21 -2 -17 5 3 5 23
10 45 10 34 0 39 -4 49 -31z m-315 12 c4 -5 -3 -7 -14 -4 -23 6 -26 13 -6 13
8 0 17 -4 20 -9z m284 -15 c7 -4 12 -12 12 -17 0 -5 -12 -2 -26 8 -26 16 -27
16 -46 -6 -17 -22 -17 -26 -3 -47 13 -20 13 -23 0 -18 -17 7 -29 39 -20 55 4
5 -1 16 -11 24 -17 12 -13 13 31 11 28 -1 56 -6 63 -10z m-227 -37 c-14 -5
-28 -6 -33 -1 -4 4 7 9 25 9 30 2 31 2 8 -8z m548 6 c-10 -9 -149 -13 -149 -4
0 5 35 9 77 9 42 0 74 -2 72 -5z m-602 -21 c-3 -3 -12 -4 -19 -1 -8 3 -5 6 6
6 11 1 17 -2 13 -5z m363 -21 c0 -19 -38 -85 -62 -110 -35 -36 -48 -41 -48
-18 0 8 -7 15 -16 15 -11 0 -4 9 17 23 19 12 43 39 54 59 12 23 26 36 37 35
10 -1 18 -3 18 -4z m-250 -53 c0 -5 -4 -10 -9 -10 -6 0 -13 5 -16 10 -3 6 1
10 9 10 9 0 16 -4 16 -10z m279 -27 c-10 -45 -6 -51 18 -28 23 24 28 4 8 -34
-14 -28 -5 -46 10 -21 7 12 36 14 33 3 -2 -5 2 -8 7 -8 6 0 9 4 7 9 -2 5 4 3
13 -4 14 -12 14 -15 -1 -31 -10 -11 -22 -19 -29 -19 -40 0 -129 -117 -160
-210 -10 -30 -24 -62 -31 -71 -8 -9 -11 -18 -8 -21 3 -3 1 -9 -5 -13 -14 -8
-14 18 0 32 8 8 7 16 -1 30 -10 16 -8 34 15 103 14 46 33 97 41 112 18 34 18
48 0 48 -8 0 -25 -23 -37 -50 -13 -30 -26 -47 -32 -41 -12 12 17 65 70 128 24
28 50 68 58 87 20 47 35 46 24 -1z m106 -21 c-7 -8 -35 7 -35 18 0 6 7 6 20
-2 10 -7 17 -14 15 -16z m-458 2 c-3 -3 -12 -4 -19 -1 -8 3 -5 6 6 6 11 1 17
-2 13 -5z m-71 -26 c4 -7 3 -8 -4 -4 -7 4 -12 2 -12 -5 0 -7 -3 -10 -6 -6 -6
5 3 27 11 27 2 0 7 -5 11 -12z m604 -137 c-18 -5 -21 -9 -12 -15 7 -4 20 -5
28 -2 8 3 28 -7 45 -22 l30 -27 -49 3 c-55 4 -99 -13 -145 -56 -24 -23 -30
-24 -38 -12 -9 12 -10 12 -5 -2 3 -10 2 -18 -2 -18 -8 0 -11 -6 -57 -96 -16
-32 -36 -63 -43 -67 -7 -5 -10 -12 -7 -17 3 -4 -4 -28 -15 -52 l-20 -43 6 50
c3 27 10 53 16 56 6 4 8 14 5 23 -4 10 -1 16 9 16 8 0 13 4 10 9 -4 5 -2 20 3
33 6 12 10 17 10 11 1 -7 5 -13 10 -13 4 0 6 12 3 26 -3 16 1 30 9 35 12 7 11
9 -1 9 -9 0 -11 3 -5 8 6 4 19 23 29 42 20 36 43 64 85 106 19 19 34 24 75 23
37 -1 44 -3 26 -8z m74 -87 c9 -8 16 -26 16 -39 0 -13 3 -31 6 -39 9 -23 34
-1 34 30 0 13 5 24 10 24 15 0 7 -84 -9 -104 -9 -10 -10 -20 -4 -28 5 -7 6
-26 2 -43 -3 -16 -7 -23 -8 -15 -1 10 -6 8 -17 -8 -12 -17 -13 -26 -5 -36 13
-16 -11 -42 -29 -31 -5 3 -10 3 -10 -2 0 -4 -11 -21 -25 -37 -14 -17 -24 -35
-21 -42 5 -13 -31 -6 -92 16 l-32 12 35 27 c19 14 45 34 58 43 29 20 41 67 20
75 -7 3 -22 -2 -32 -11 -10 -9 -23 -16 -30 -16 -6 0 -14 -6 -17 -14 -3 -8 -24
-27 -47 -42 -23 -15 -36 -20 -28 -11 7 9 10 17 5 17 -4 0 9 15 29 34 20 18 37
41 37 50 0 9 8 16 17 16 9 0 13 3 10 7 -4 3 0 17 9 31 8 13 13 30 10 39 -5 11
-16 6 -51 -22 -25 -21 -45 -35 -45 -32 0 18 14 36 23 30 6 -4 8 0 4 10 -3 10
-2 17 4 17 6 0 8 4 5 8 -6 11 37 61 72 84 33 22 75 23 96 2z m-634 -4 c-18
-12 -30 -13 -30 -2 0 4 10 9 22 9 18 2 20 0 8 -7z m-225 -300 c-3 -5 -12 -7
-20 -3 -21 7 -19 13 6 13 11 0 18 -4 14 -10z m-35 -52 c0 -6 -6 -5 -15 2 -8 7
-15 14 -15 16 0 2 7 1 15 -2 8 -4 15 -11 15 -16z m101 -41 c-10 -9 -11 -8 -5
6 3 10 9 15 12 12 3 -3 0 -11 -7 -18z m79 -8 c0 -11 -3 -19 -7 -19 -12 0 -39
20 -29 20 6 0 2 6 -9 13 -16 13 -15 14 13 9 23 -3 32 -10 32 -23z m525 21 c13
-6 15 -9 5 -9 -8 0 -22 4 -30 9 -18 12 -2 12 25 0z m30 -20 c-3 -5 3 -10 13
-10 11 0 26 -7 33 -17 13 -15 12 -15 -8 -4 -20 10 -22 9 -16 -5 5 -13 3 -15
-8 -9 -8 5 -5 -1 5 -13 12 -14 15 -22 6 -22 -6 0 -10 -7 -7 -14 4 -10 1 -13
-9 -9 -7 3 -14 10 -14 15 0 6 -7 8 -15 5 -19 -8 -31 13 -14 25 10 6 7 7 -10 3
-16 -5 -21 -4 -17 4 4 7 1 9 -7 5 -8 -3 -18 -1 -22 5 -9 15 24 26 37 13 13
-13 50 -3 44 13 -2 7 -2 16 1 19 10 10 15 7 8 -4z m-653 -77 c-6 -2 -9 -10 -6
-15 4 -7 2 -8 -4 -4 -18 11 -14 26 6 25 10 0 12 -3 4 -6z m32 -33 c-15 -16
-33 -26 -41 -23 -12 5 -12 7 -2 14 7 4 17 5 23 2 5 -4 7 1 3 10 -3 9 -3 16 1
16 21 -3 32 2 26 13 -4 7 -3 8 5 4 8 -5 3 -16 -15 -36z m553 28 c15 -7 34 -20
41 -28 10 -13 11 -13 6 3 -8 23 -1 22 21 -3 17 -19 17 -20 1 -14 -14 5 -16 2
-13 -17 2 -13 2 -18 0 -11 -4 10 -8 10 -19 1 -11 -9 -12 -15 -3 -25 6 -8 8
-14 3 -14 -5 0 -17 14 -26 30 -9 17 -24 30 -33 30 -8 0 -15 5 -15 11 0 5 6 7
13 3 8 -5 8 -2 -2 9 -11 14 -11 17 0 18 8 1 3 5 -11 9 -16 5 -19 8 -8 9 9 1
30 -5 45 -11z m-483 -40 c-3 -4 -12 -8 -20 -8 -8 0 -13 4 -10 8 3 5 12 9 20 9
8 0 13 -4 10 -9z m456 -43 c40 -41 42 -45 21 -45 -17 0 -22 4 -17 16 4 12 2
15 -9 10 -8 -3 -16 -1 -16 4 -1 6 -2 14 -3 19 -2 15 -16 26 -16 12 0 -9 -4 -9
-14 1 -14 13 -12 28 3 28 4 0 27 -20 51 -45z m-575 -17 c5 4 5 2 1 -5 -4 -7 2
-14 15 -18 11 -4 18 -9 16 -11 -8 -8 -76 29 -71 38 3 5 11 4 18 -1 7 -6 17 -7
21 -3z m535 -53 c0 -2 -6 -7 -12 -11 -7 -4 -10 -4 -6 1 4 4 0 14 -10 22 -15
13 -15 13 6 3 12 -6 22 -13 22 -15z m-675 2 c11 -7 32 -18 46 -24 25 -11 26
-10 23 10 -3 16 0 13 10 -8 9 -16 15 -46 16 -65 0 -19 4 -52 9 -72 12 -50 4
-48 -18 5 l-18 42 -7 -70 c-10 -96 -14 -102 -15 -23 -1 107 -17 164 -54 193
-33 26 -27 35 8 12z m740 -20 c7 -8 10 -19 6 -26 -5 -8 -11 -3 -19 14 -13 28
-8 32 13 12z m-890 -7 c-3 -5 -13 -10 -21 -10 -8 0 -12 5 -9 10 3 6 13 10 21
10 8 0 12 -4 9 -10z m65 0 c0 -5 -7 -7 -15 -4 -8 4 -15 8 -15 10 0 2 7 4 15 4
8 0 15 -4 15 -10z m799 -31 c1 -3 -6 -6 -14 -6 -15 0 -21 28 -8 41 6 6 20 -16
22 -35z m-59 -27 c0 -7 -16 -36 -36 -65 -35 -50 -43 -42 -18 18 7 18 6 18 -9
6 -9 -7 -17 -10 -17 -6 0 4 -8 1 -17 -6 -15 -11 -16 -11 -5 1 25 29 11 33 -18
5 -16 -16 -33 -25 -37 -21 -4 3 22 34 56 68 l64 61 18 -24 c10 -13 19 -30 19
-37z m-760 29 c0 -5 -16 -9 -35 -9 -19 0 -33 3 -31 7 7 10 66 12 66 2z m68
-19 c4 -26 -7 -28 -34 -7 -16 13 -17 16 -4 25 21 14 34 7 38 -18z m40 -11 c-2
-17 -10 -27 -23 -29 -15 -2 -17 -1 -6 6 8 6 12 20 9 35 -4 19 -1 24 9 20 8 -3
13 -16 11 -32z m772 19 c0 -5 -2 -10 -4 -10 -3 0 -8 5 -11 10 -3 6 -1 10 4 10
6 0 11 -4 11 -10z m-923 -16 c-3 -3 -12 -4 -19 -1 -8 3 -5 6 6 6 11 1 17 -2
13 -5z m874 -8 c-9 -11 -9 -15 1 -18 9 -3 9 -6 1 -11 -7 -5 -17 2 -23 14 -8
15 -9 19 -1 15 6 -4 11 -2 11 3 0 6 5 11 11 11 8 0 8 -4 0 -14z m53 -4 c3 -5
-1 -9 -9 -9 -8 0 -15 4 -15 9 0 4 4 8 9 8 6 0 12 -4 15 -8z m-894 -18 c0 -2
-7 -4 -15 -4 -8 0 -15 4 -15 10 0 5 7 7 15 4 8 -4 15 -8 15 -10z m5 -24 c3 -5
2 -10 -4 -10 -5 0 -13 5 -16 10 -3 6 -2 10 4 10 5 0 13 -4 16 -10z m1135 -27
c0 -19 -3 -24 -10 -17 -6 6 -8 18 -4 27 9 24 14 21 14 -10z m-459 -10 c-12
-20 -14 -14 -5 12 4 9 9 14 11 11 3 -2 0 -13 -6 -23z m-71 -10 c0 -14 -19 -38
-25 -32 -8 8 5 39 16 39 5 0 9 -3 9 -7z m540 -22 c0 -17 -18 -21 -24 -6 -3 9
0 15 9 15 8 0 15 -4 15 -9z m-509 -32 c-9 -22 -10 -22 -10 -3 -1 11 2 24 6 27
12 12 14 0 4 -24z m63 -21 c16 -27 26 -48 23 -48 -8 0 -57 79 -57 91 0 16 1
14 34 -43z m27 34 c-7 -2 -18 1 -23 6 -8 8 -4 9 13 5 13 -4 18 -8 10 -11z
m404 -52 c3 -5 1 -10 -4 -10 -6 0 -11 5 -11 10 0 6 2 10 4 10 3 0 8 -4 11 -10z
m-475 -21 c0 -6 -4 -7 -10 -4 -5 3 -10 11 -10 16 0 6 5 7 10 4 6 -3 10 -11 10
-16z m480 -3 c0 -2 -7 -7 -16 -10 -8 -3 -12 -2 -9 4 6 10 25 14 25 6z m17 -18
c-3 -8 -6 -5 -6 6 -1 11 2 17 5 13 3 -3 4 -12 1 -19z m-157 -52 c0 -2 -7 -7
-16 -10 -8 -3 -12 -2 -9 4 6 10 25 14 25 6z m-287 -35 c3 -11 2 -23 -2 -26 -3
-4 -6 -12 -6 -18 -1 -7 -7 -11 -14 -9 -8 2 -11 -3 -8 -12 4 -9 2 -18 -4 -21
-5 -4 -7 -10 -5 -14 3 -4 -4 -18 -15 -29 -18 -20 -18 -22 -2 -23 16 0 16 -1
-2 -9 -17 -7 -17 -9 -2 -9 20 -1 22 -8 4 -26 -9 -8 -19 -10 -28 -4 -8 5 -9 9
-4 9 6 0 10 19 10 42 1 70 12 138 25 153 18 21 47 19 53 -4z m271 -31 c6 0 12
-9 13 -19 2 -19 1 -19 -18 0 -10 10 -19 25 -18 32 0 10 2 10 6 0 2 -7 10 -13
17 -13z m-441 -37 c-4 -9 -2 -14 3 -10 5 3 10 -3 10 -13 0 -10 -3 -17 -7 -14
-4 2 -9 -2 -12 -8 -2 -7 -3 3 -2 22 3 40 3 40 10 40 2 0 1 -7 -2 -17z m447
-22 c0 -6 -5 -13 -10 -16 -6 -4 -8 -11 -5 -16 3 -5 0 -6 -8 -3 -18 7 -10 44 9
44 8 0 14 -4 14 -9z m27 -60 c-1 -11 -6 -17 -14 -14 -10 4 -10 9 -3 18 5 6 6
16 2 20 -4 5 -2 5 5 1 6 -3 11 -15 10 -25z m-37 4 c0 -2 -6 -8 -13 -14 -10 -8
-14 -7 -14 2 0 8 6 14 14 14 7 0 13 -1 13 -2z m-430 -31 c0 -2 -7 -4 -15 -4
-8 0 -15 4 -15 10 0 5 7 7 15 4 8 -4 15 -8 15 -10z m439 -26 c-7 -13 -18 -28
-24 -35 -10 -9 -12 -6 -12 14 0 18 2 21 8 12 7 -11 9 -10 9 3 0 13 8 22 28 27
1 1 -3 -9 -9 -21z"/>
<path d="M1657 1909 c7 -7 15 -10 18 -7 3 3 -2 9 -12 12 -14 6 -15 5 -6 -5z"/>
<path d="M1630 1880 c-12 -8 -9 -10 13 -10 15 0 27 5 27 10 0 13 -20 13 -40 0z"/>
<path d="M1519 1673 c-13 -16 -12 -17 4 -4 16 13 21 21 13 21 -2 0 -10 -8 -17
-17z"/>
<path d="M1430 1630 c0 -6 7 -10 15 -10 8 0 15 2 15 4 0 2 -7 6 -15 10 -8 3
-15 1 -15 -4z"/>
<path d="M1846 1047 c-3 -13 -18 -29 -32 -36 -21 -9 -24 -15 -15 -24 10 -9 18
-6 37 16 13 15 24 35 24 44 0 12 3 13 13 4 15 -12 30 -4 21 10 -11 18 -42 9
-48 -14z"/>
<path d="M1667 791 c3 -12 11 -17 19 -14 18 7 18 10 -5 22 -16 9 -18 8 -14 -8z"/>
<path d="M965 1971 c-3 -5 -1 -12 5 -16 5 -3 10 -1 10 5 0 6 5 8 10 5 15 -9
-9 -38 -25 -31 -7 2 -12 -1 -12 -7 1 -32 -4 -48 -12 -42 -5 3 -7 21 -4 40 5
34 5 35 -28 35 -24 0 -30 -3 -20 -9 8 -5 20 -7 26 -5 9 4 12 -7 11 -33 -1 -36
0 -38 29 -37 44 3 43 2 48 22 4 16 5 16 6 0 1 -22 21 -24 21 -3 0 8 4 15 9 15
5 0 8 11 6 25 -1 15 4 29 14 35 9 5 11 10 4 10 -14 0 -27 -19 -28 -40 0 -8
-10 -16 -23 -18 -21 -3 -22 -1 -12 17 6 12 8 26 5 31 -8 13 -32 13 -40 1z m25
-71 c0 -5 -4 -10 -9 -10 -6 0 -13 5 -16 10 -3 6 1 10 9 10 9 0 16 -4 16 -10z"/>
<path d="M1124 1968 c-4 -6 1 -17 10 -23 14 -11 15 -13 1 -19 -23 -9 -19 -45
5 -43 16 1 20 8 20 40 0 33 3 38 18 34 9 -3 28 -8 42 -11 22 -6 21 -4 -5 9
-28 15 -28 15 -5 12 14 -3 33 -8 43 -12 9 -4 17 -3 17 3 0 10 -46 22 -83 22
-11 0 -26 -8 -33 -17 -7 -10 -16 -14 -20 -10 -5 4 -2 12 6 17 9 6 10 10 3 10
-6 0 -15 -5 -19 -12z m26 -57 c0 -6 -4 -13 -10 -16 -5 -3 -10 1 -10 9 0 9 5
16 10 16 6 0 10 -4 10 -9z"/>
<path d="M1827 1967 c-11 -28 -9 -65 5 -73 8 -5 9 -2 5 9 -3 9 -2 19 2 22 5 2
11 -4 14 -14 3 -11 13 -18 28 -18 21 0 24 4 24 38 1 21 -3 35 -7 33 -4 -3 -8
-16 -8 -29 0 -25 -16 -42 -28 -30 -4 4 -1 10 6 12 13 5 17 24 5 22 -22 -4 -32
3 -35 24 -3 20 -4 20 -11 4z"/>
<path d="M836 1954 c-30 -29 -19 -33 14 -4 13 11 18 20 12 20 -6 0 -18 -7 -26
-16z"/>
<path d="M1074 1945 c-4 -9 -2 -21 5 -28 17 -17 13 -25 -11 -29 -45 -6 -26
-68 21 -68 10 0 6 5 -9 13 -27 13 -42 51 -17 42 7 -3 20 1 27 10 11 14 11 20
1 37 -14 23 -5 40 10 18 9 -13 10 -13 7 -1 -6 22 -27 25 -34 6z"/>
<path d="M744 1905 c1 -29 5 -35 23 -35 12 0 25 5 28 10 5 8 11 7 21 -1 11 -9
17 -9 28 0 10 8 16 9 21 1 3 -5 14 -10 23 -9 11 0 12 3 5 6 -18 7 -16 33 3 33
8 0 12 5 9 11 -5 7 -13 5 -25 -6 -13 -12 -20 -13 -25 -5 -4 7 -16 10 -26 7
-10 -3 -23 1 -30 9 -6 8 -21 14 -33 14 -19 0 -22 -5 -22 -35z m41 -12 c-7 -17
-8 -17 -15 2 -9 24 -2 41 12 27 6 -6 7 -19 3 -29z m59 -4 c-3 -5 -10 -7 -15
-3 -5 3 -7 10 -3 15 3 5 10 7 15 3 5 -3 7 -10 3 -15z"/>
<path d="M1171 1923 c0 -4 4 -17 9 -28 8 -19 9 -19 9 2 1 12 -3 25 -9 28 -5 3
-10 3 -9 -2z"/>
<path d="M1220 1920 c0 -5 5 -10 11 -10 5 0 7 5 4 10 -3 6 -8 10 -11 10 -2 0
-4 -4 -4 -10z"/>
<path d="M1271 1913 c-1 -12 4 -25 9 -28 12 -7 12 2 0 30 -8 19 -9 19 -9 -2z"/>
<path d="M676 1913 c-3 -4 -6 -14 -6 -23 0 -12 9 -17 30 -17 17 0 26 3 20 7
-6 4 -8 13 -5 21 6 15 -26 24 -39 12z"/>
<path d="M1202 1900 c0 -14 2 -19 5 -12 2 6 2 18 0 25 -3 6 -5 1 -5 -13z"/>
<path d="M1252 1900 c0 -14 2 -19 5 -12 2 6 2 18 0 25 -3 6 -5 1 -5 -13z"/>
<path d="M620 1870 c0 -5 5 -10 10 -10 6 0 10 -6 8 -12 -2 -7 2 -14 7 -15 14
-4 13 19 -2 35 -14 15 -23 16 -23 2z"/>
<path d="M639 1629 c-10 -6 -9 -12 6 -29 18 -20 20 -20 32 -4 7 10 13 21 13
25 0 11 -37 17 -51 8z"/>
<path d="M493 1616 c-35 -11 -44 -26 -15 -26 17 1 59 27 51 33 -2 1 -19 -2
-36 -7z"/>
<path d="M746 1606 c7 -18 32 -28 46 -20 6 4 1 12 -13 20 -31 17 -40 17 -33 0z"/>
<path d="M698 1576 c-23 -17 -23 -22 3 -29 13 -3 22 0 26 9 9 23 -9 35 -29 20z"/>
<path d="M595 1570 c3 -5 10 -10 16 -10 5 0 9 5 9 10 0 6 -7 10 -16 10 -8 0
-12 -4 -9 -10z"/>
<path d="M510 1550 c0 -5 5 -10 10 -10 6 0 10 5 10 10 0 6 -4 10 -10 10 -5 0
-10 -4 -10 -10z"/>
<path d="M425 1534 c-14 -15 -15 -19 -2 -31 21 -21 57 -1 50 27 -6 24 -26 26
-48 4z"/>
<path d="M847 1520 c-3 -13 1 -24 13 -30 44 -23 68 1 34 34 -21 22 -41 20 -47
-4z m34 -17 c13 -16 12 -17 -3 -4 -10 7 -18 15 -18 17 0 8 8 3 21 -13z"/>
<path d="M307 1464 c-10 -13 -14 -24 -9 -24 13 0 35 27 30 39 -1 5 -11 -2 -21
-15z"/>
<path d="M600 1469 c0 -5 5 -7 10 -4 6 3 10 8 10 11 0 2 -4 4 -10 4 -5 0 -10
-5 -10 -11z"/>
<path d="M940 1457 c0 -8 9 -22 20 -32 23 -21 25 -16 8 20 -12 27 -28 34 -28
12z"/>
<path d="M430 1390 c0 -5 5 -10 10 -10 6 0 10 5 10 10 0 6 -4 10 -10 10 -5 0
-10 -4 -10 -10z"/>
<path d="M615 1389 c52 -30 58 -72 19 -118 -30 -36 -65 -40 -94 -11 -13 13
-26 17 -37 12 -22 -9 -28 -32 -11 -44 8 -5 3 -6 -13 -2 -32 7 -46 -10 -28 -32
12 -14 14 -14 25 1 11 15 14 14 28 -13 8 -16 12 -33 8 -37 -4 -5 -2 -5 4 -2
12 7 48 -26 38 -35 -11 -12 94 -20 115 -8 12 6 21 8 21 5 0 -3 11 2 25 11 16
10 25 26 25 42 0 24 -1 25 -14 7 -16 -23 -71 -24 -93 -3 -34 35 -6 108 42 108
30 0 54 -20 64 -55 l8 -30 12 38 c11 33 11 41 -4 57 -9 10 -14 24 -9 31 4 7 3
10 -3 6 -5 -4 -16 5 -23 18 -13 24 -51 46 -100 59 -23 6 -23 6 -5 -5z"/>
<path d="M767 1384 c-8 -8 1 -24 14 -24 5 0 9 7 9 15 0 15 -12 20 -23 9z"/>
<path d="M285 1310 c-7 -11 11 -40 24 -40 17 1 33 19 26 31 -6 9 -10 8 -16 -7
-7 -17 -8 -17 -8 4 -1 23 -15 30 -26 12z"/>
<path d="M580 1309 c0 -5 5 -7 10 -4 6 3 10 8 10 11 0 2 -4 4 -10 4 -5 0 -10
-5 -10 -11z"/>
<path d="M625 1297 c-12 -27 -47 -33 -69 -12 -14 14 -16 15 -16 1 0 -42 82
-39 95 4 9 29 2 34 -10 7z"/>
<path d="M940 1269 c0 -5 5 -7 10 -4 6 3 10 8 10 11 0 2 -4 4 -10 4 -5 0 -10
-5 -10 -11z"/>
<path d="M254 1235 c0 -19 4 -35 8 -35 4 0 8 16 8 35 0 19 -4 35 -8 35 -4 0
-8 -16 -8 -35z"/>
<path d="M1030 1232 c0 -31 -20 -80 -36 -86 -21 -8 -42 3 -49 25 -4 11 -11 17
-16 13 -5 -3 -6 -10 -3 -16 4 -6 2 -13 -3 -17 -7 -4 -7 -15 -2 -29 8 -20 14
-23 38 -17 21 4 32 2 38 -10 7 -12 26 -17 72 -18 59 -2 62 -1 67 23 3 14 9 33
14 42 6 10 7 25 3 34 -5 13 -3 16 10 11 20 -8 24 18 5 27 -7 3 -2 3 10 0 19
-5 23 -2 20 13 -3 15 -15 18 -86 21 -75 3 -82 1 -82 -16z m45 -2 c3 -5 1 -10
-4 -10 -6 0 -11 5 -11 10 0 6 2 10 4 10 3 0 8 -4 11 -10z m5 -70 c0 -5 -7 -7
-15 -4 -8 4 -15 8 -15 10 0 2 7 4 15 4 8 0 15 -4 15 -10z m-60 -30 c0 -5 -4
-10 -10 -10 -5 0 -10 5 -10 10 0 6 5 10 10 10 6 0 10 -4 10 -10z m87 -36 c-3
-3 -12 -4 -19 -1 -8 3 -5 6 6 6 11 1 17 -2 13 -5z"/>
<path d="M900 1224 c0 -8 5 -12 10 -9 6 4 8 11 5 16 -9 14 -15 11 -15 -7z"/>
<path d="M657 1224 c-8 -8 1 -24 14 -24 5 0 9 7 9 15 0 15 -12 20 -23 9z"/>
<path d="M960 1200 c0 -18 4 -29 10 -25 6 3 10 15 10 25 0 10 -4 22 -10 25 -6
4 -10 -7 -10 -25z"/>
<path d="M330 1193 c0 -4 5 -15 10 -23 8 -13 10 -13 10 2 0 9 -4 20 -10 23 -5
3 -10 3 -10 -2z"/>
<path d="M765 1190 c-3 -5 -1 -10 4 -10 6 0 11 5 11 10 0 6 -2 10 -4 10 -3 0
-8 -4 -11 -10z"/>
<path d="M355 1100 c-3 -5 -1 -10 4 -10 6 0 11 5 11 10 0 6 -2 10 -4 10 -3 0
-8 -4 -11 -10z"/>
<path d="M290 1084 c0 -14 27 -50 33 -44 3 3 -3 16 -13 30 -11 14 -20 20 -20
14z"/>
<path d="M376 1083 c-11 -11 -6 -23 9 -23 8 0 15 4 15 9 0 13 -16 22 -24 14z"/>
<path d="M580 1070 c0 -5 7 -10 16 -10 8 0 12 5 9 10 -3 6 -10 10 -16 10 -5 0
-9 -4 -9 -10z"/>
<path d="M865 1069 c-4 -6 -5 -13 -2 -16 7 -7 27 6 27 18 0 12 -17 12 -25 -2z"/>
<path d="M945 1049 c-10 -30 -2 -32 12 -3 6 13 7 24 3 24 -5 0 -12 -9 -15 -21z"/>
<path d="M775 1040 c-3 -5 -2 -10 4 -10 5 0 13 5 16 10 3 6 2 10 -4 10 -5 0
-13 -4 -16 -10z"/>
<path d="M435 1020 c-4 -6 -4 -19 0 -30 3 -10 1 -28 -5 -40 -14 -26 -6 -26 20
0 11 11 27 20 35 20 23 0 18 14 -14 38 -18 13 -32 18 -36 12z"/>
<path d="M381 994 c15 -16 25 -21 28 -13 2 7 -4 18 -15 26 -30 22 -39 15 -13
-13z"/>
<path d="M820 997 c-23 -12 -40 -37 -23 -37 11 1 57 40 52 45 -3 2 -15 -1 -29
-8z"/>
<path d="M760 979 c0 -5 5 -7 10 -4 6 3 10 8 10 11 0 2 -4 4 -10 4 -5 0 -10
-5 -10 -11z"/>
<path d="M506 965 c-3 -9 0 -15 9 -15 8 0 15 7 15 15 0 8 -4 15 -9 15 -5 0
-11 -7 -15 -15z"/>
<path d="M552 952 c4 -21 38 -29 38 -9 0 8 -9 17 -21 20 -15 4 -19 1 -17 -11z"/>
<path d="M740 961 c0 -5 5 -13 10 -16 6 -3 10 -2 10 4 0 5 -4 13 -10 16 -5 3
-10 2 -10 -4z"/>
<path d="M470 914 c0 -14 -2 -15 -17 -3 -16 13 -17 12 -5 -3 8 -9 20 -14 28
-11 10 4 12 0 8 -11 -5 -13 1 -16 26 -16 21 0 29 -4 24 -12 -4 -7 -3 -8 5 -4
16 10 4 26 -22 27 -12 0 -16 3 -9 6 19 7 14 19 -13 31 -21 10 -25 9 -25 -4z"/>
<path d="M825 910 c-19 -20 -41 -28 -30 -10 4 7 -2 7 -18 1 -14 -6 -28 -7 -31
-4 -3 4 -6 3 -6 0 0 -3 10 -11 21 -18 15 -8 19 -8 15 0 -4 6 -3 11 3 11 5 0
11 -4 13 -10 2 -5 13 -7 25 -4 13 4 20 10 17 16 -3 5 0 15 6 23 19 22 6 18
-15 -5z"/>
<path d="M574 892 c3 -5 19 -9 36 -10 17 0 28 4 25 9 -4 5 -20 9 -36 9 -17 0
-28 -4 -25 -8z"/>
<path d="M959 883 c-13 -15 -12 -15 9 -4 23 12 28 21 13 21 -5 0 -15 -7 -22
-17z"/>
<path d="M323 815 c0 -33 2 -45 4 -27 2 18 2 45 0 60 -2 15 -4 0 -4 -33z"/>
<path d="M440 866 c0 -2 7 -6 15 -10 8 -3 15 -1 15 4 0 6 -7 10 -15 10 -8 0
-15 -2 -15 -4z"/>
<path d="M314 648 c9 -71 16 -73 16 -5 0 35 -4 57 -11 57 -7 0 -9 -17 -5 -52z"/>
<path d="M321 544 c0 -11 3 -14 6 -6 3 7 2 16 -1 19 -3 4 -6 -2 -5 -13z"/>
<path d="M322 500 c0 -14 2 -19 5 -12 2 6 2 18 0 25 -3 6 -5 1 -5 -13z"/>
<path d="M321 444 c0 -11 3 -14 6 -6 3 7 2 16 -1 19 -3 4 -6 -2 -5 -13z"/>
<path d="M480 409 c0 -5 5 -7 10 -4 6 3 10 8 10 11 0 2 -4 4 -10 4 -5 0 -10
-5 -10 -11z"/>
<path d="M735 409 c-4 -6 -5 -12 -2 -15 2 -3 7 2 10 11 7 17 1 20 -8 4z"/>
<path d="M320 396 c0 -9 5 -16 10 -16 6 0 10 4 10 9 0 6 -4 13 -10 16 -5 3
-10 -1 -10 -9z"/>
<path d="M396 395 c-7 -20 21 -32 37 -16 9 9 8 14 -3 21 -21 13 -27 12 -34 -5z"/>
<path d="M513 403 c-25 -9 -14 -33 15 -32 25 2 26 2 3 6 -18 4 -21 7 -10 13
16 10 10 19 -8 13z"/>
<path d="M450 385 c0 -8 9 -15 20 -15 11 0 20 2 20 5 0 2 -9 9 -20 15 -16 9
-20 8 -20 -5z"/>
<path d="M646 392 c-3 -5 1 -9 9 -9 8 0 15 4 15 9 0 4 -4 8 -9 8 -6 0 -12 -4
-15 -8z"/>
<path d="M690 390 c-13 -8 -12 -10 3 -10 9 0 17 5 17 10 0 12 -1 12 -20 0z"/>
<path d="M750 388 c0 -4 7 -8 15 -8 8 0 15 4 15 8 0 5 -7 9 -15 9 -8 0 -15 -4
-15 -9z"/>
<path d="M590 381 c0 -5 9 -7 20 -4 11 3 20 7 20 9 0 2 -9 4 -20 4 -11 0 -20
-4 -20 -9z"/>
<path d="M710 360 c-9 -6 -10 -10 -3 -10 6 0 15 5 18 10 8 12 4 12 -15 0z"/>
<path d="M719 333 c-13 -16 -12 -17 4 -4 16 13 21 21 13 21 -2 0 -10 -8 -17
-17z"/>
<path d="M462 320 c0 -14 2 -19 5 -12 2 6 2 18 0 25 -3 6 -5 1 -5 -13z"/>
<path d="M557 324 c-15 -15 -6 -24 22 -24 17 0 33 5 37 11 5 8 -1 10 -19 5
-15 -3 -27 -2 -29 5 -2 5 -7 7 -11 3z"/>
<path d="M791 321 c-7 -5 -22 -6 -32 -4 -10 3 -19 1 -19 -4 0 -10 67 -9 77 0
9 9 -13 16 -26 8z"/>
<path d="M850 319 c0 -10 27 -19 34 -12 11 12 6 19 -14 19 -11 0 -20 -3 -20
-7z"/>
<path d="M900 320 c0 -12 26 -19 39 -10 9 5 4 9 -13 12 -14 3 -26 2 -26 -2z"/>
<path d="M970 320 c-13 -8 -12 -10 3 -10 9 0 17 5 17 10 0 12 -1 12 -20 0z"/>
<path d="M367 312 c-3 -4 -1 -16 4 -27 6 -16 8 -16 8 -3 1 9 6 18 13 20 8 3 6
7 -5 11 -9 3 -18 3 -20 -1z"/>
<path d="M416 308 c3 -4 9 -8 15 -8 5 0 9 4 9 8 0 5 -7 9 -15 9 -8 0 -12 -4
-9 -9z"/>
<path d="M660 313 c0 -5 17 -9 38 -10 28 -1 32 0 17 7 -25 11 -55 12 -55 3z"/>
<path d="M322 280 c0 -14 2 -19 5 -12 2 6 2 18 0 25 -3 6 -5 1 -5 -13z"/>
<path d="M556 254 c-9 -23 -8 -24 14 -24 11 0 20 5 20 11 0 6 -7 9 -14 6 -10
-4 -13 -1 -9 9 3 7 3 14 0 14 -3 0 -8 -7 -11 -16z"/>
<path d="M632 258 c-15 -15 -15 -28 0 -28 6 0 8 3 5 7 -4 3 -2 12 4 20 14 16
7 17 -9 1z"/>
<path d="M530 249 c0 -5 -4 -7 -10 -4 -5 3 -10 2 -10 -4 0 -6 -8 -8 -17 -5
-14 5 -15 4 -4 -4 17 -13 51 -3 51 14 0 8 -2 14 -5 14 -3 0 -5 -5 -5 -11z"/>
<path d="M668 252 c-34 -7 -18 -17 31 -20 30 -1 52 2 57 9 4 7 3 9 -4 5 -5 -3
-13 0 -15 6 -4 10 -6 10 -6 1 -1 -7 -6 -13 -12 -13 -5 0 -8 4 -4 9 5 10 -12
10 -47 3z"/>
<path d="M810 251 c0 -5 5 -13 10 -16 6 -3 10 -2 10 4 0 5 -4 13 -10 16 -5 3
-10 2 -10 -4z"/>
<path d="M323 210 c0 -25 2 -35 4 -22 2 12 2 32 0 45 -2 12 -4 2 -4 -23z"/>
<path d="M381 234 c0 -11 3 -14 6 -6 3 7 2 16 -1 19 -3 4 -6 -2 -5 -13z"/>
<path d="M766 235 c-3 -8 -12 -15 -21 -15 -8 0 -15 -4 -15 -10 0 -15 16 -12
30 5 7 8 19 15 26 15 8 0 14 5 14 10 0 16 -27 12 -34 -5z"/>
<path d="M477 183 c-4 -3 -7 -11 -7 -17 0 -6 5 -5 12 2 6 6 9 14 7 17 -3 3 -9
2 -12 -2z"/>
<path d="M538 183 c-10 -2 -18 -12 -17 -21 0 -11 2 -12 6 -4 2 6 11 12 19 12
8 0 14 5 14 10 0 6 -1 9 -2 9 -2 -1 -11 -3 -20 -6z"/>
<path d="M721 174 c0 -11 3 -14 6 -6 3 7 2 16 -1 19 -3 4 -6 -2 -5 -13z"/>
<path d="M626 171 c-3 -3 6 -8 20 -9 13 -1 24 2 24 6 0 10 -38 13 -44 3z"/>
<path d="M745 170 c-3 -5 -1 -10 4 -10 6 0 11 5 11 10 0 6 -2 10 -4 10 -3 0
-8 -4 -11 -10z"/>
<path d="M770 172 c0 -4 9 -8 19 -8 11 0 17 4 15 8 -3 4 -12 8 -20 8 -8 0 -14
-4 -14 -8z"/>
<path d="M855 170 c-3 -5 -1 -10 4 -10 6 0 11 5 11 10 0 6 -2 10 -4 10 -3 0
-8 -4 -11 -10z"/>
<path d="M880 176 c0 -2 7 -7 16 -10 8 -3 12 -2 9 4 -6 10 -25 14 -25 6z"/>
<path d="M927 173 c-3 -5 5 -8 18 -8 13 0 21 3 18 8 -2 4 -10 7 -18 7 -8 0
-16 -3 -18 -7z"/>
<path d="M420 160 c0 -5 5 -10 10 -10 6 0 10 5 10 10 0 6 -4 10 -10 10 -5 0
-10 -4 -10 -10z"/>
<path d="M323 125 c0 -22 2 -30 4 -17 2 12 2 30 0 40 -3 9 -5 -1 -4 -23z"/>
<path d="M568 143 c-10 -2 -18 -8 -18 -13 0 -4 9 -6 20 -3 11 3 20 9 20 14 0
5 -1 8 -2 8 -2 -1 -11 -3 -20 -6z"/>
<path d="M458 133 c7 -3 16 -2 19 1 4 3 -2 6 -13 5 -11 0 -14 -3 -6 -6z"/>
<path d="M667 115 c-4 -8 -2 -17 3 -20 6 -4 10 3 10 14 0 25 -6 27 -13 6z"/>
<path d="M1945 120 c-3 -6 1 -7 9 -4 18 7 21 14 7 14 -6 0 -13 -4 -16 -10z"/>
<path d="M377 113 c-4 -3 -7 -15 -7 -25 0 -15 5 -17 28 -12 32 8 52 22 52 37
0 6 -6 2 -14 -9 -8 -10 -18 -16 -22 -12 -4 4 -13 3 -21 -3 -10 -9 -13 -8 -13
4 0 8 6 18 13 20 6 3 7 6 1 6 -6 1 -14 -2 -17 -6z"/>
<path d="M857 114 c-4 -4 -7 -11 -7 -15 0 -9 27 -5 37 6 4 4 3 5 -4 2 -6 -4
-13 -2 -15 4 -2 5 -7 7 -11 3z"/>
<path d="M691 94 c0 -11 3 -14 6 -6 3 7 2 16 -1 19 -3 4 -6 -2 -5 -13z"/>
<path d="M725 99 c-11 -16 -1 -19 13 -3 7 8 8 14 3 14 -5 0 -13 -5 -16 -11z"/>
<path d="M965 100 c-3 -5 1 -10 10 -10 9 0 13 5 10 10 -3 6 -8 10 -10 10 -2 0
-7 -4 -10 -10z"/>
<path d="M455 90 c-3 -5 -1 -10 4 -10 6 0 11 5 11 10 0 6 -2 10 -4 10 -3 0 -8
-4 -11 -10z"/>
<path d="M514 88 c-3 -4 4 -8 15 -8 12 0 21 4 21 8 0 5 -7 9 -15 9 -9 0 -18
-4 -21 -9z"/>
<path d="M565 90 c-3 -5 1 -10 10 -10 9 0 13 5 10 10 -3 6 -8 10 -10 10 -2 0
-7 -4 -10 -10z"/>
<path d="M630 90 c0 -6 7 -10 15 -10 8 0 15 2 15 4 0 2 -7 6 -15 10 -8 3 -15
1 -15 -4z"/>
<path d="M775 90 c-3 -5 -1 -10 4 -10 6 0 11 5 11 10 0 6 -2 10 -4 10 -3 0 -8
-4 -11 -10z"/>
<path d="M900 86 c0 -7 -10 -16 -22 -19 -12 -4 -20 -8 -17 -11 11 -12 49 8 49
25 0 11 -2 19 -5 19 -3 0 -5 -6 -5 -14z"/>
<path d="M323 40 c0 -25 2 -35 4 -22 2 12 2 32 0 45 -2 12 -4 2 -4 -23z"/>
<path d="M590 60 c-13 -8 -12 -10 3 -10 9 0 17 5 17 10 0 12 -1 12 -20 0z"/>
<path d="M820 60 c-8 -5 -10 -10 -5 -10 6 0 17 5 25 10 8 5 11 10 5 10 -5 0
-17 -5 -25 -10z"/>
<path d="M626 25 c-9 -23 -8 -25 9 -25 17 0 19 9 6 28 -7 11 -10 10 -15 -3z"/>
<path d="M1020 25 c0 -8 7 -11 20 -8 22 6 19 15 -5 19 -8 1 -15 -4 -15 -11z"/>
<path d="M1076 28 c3 -4 12 -8 20 -8 8 0 14 4 14 8 0 4 -9 8 -19 8 -11 0 -17
-4 -15 -8z"/>
<path d="M530 20 c0 -6 7 -10 15 -10 8 0 15 2 15 4 0 2 -7 6 -15 10 -8 3 -15
1 -15 -4z"/>
<path d="M740 22 c0 -4 14 -8 30 -7 17 0 30 3 30 7 0 5 -13 8 -30 8 -16 0 -30
-4 -30 -8z"/>
<path d="M825 20 c-3 -5 -1 -10 4 -10 6 0 11 5 11 10 0 6 -2 10 -4 10 -3 0 -8
-4 -11 -10z"/>
<path d="M965 20 c-19 -8 -19 -9 2 -9 12 -1 25 4 28 9 7 12 -2 12 -30 0z"/>
<path d="M380 10 c0 -5 5 -10 10 -10 6 0 10 5 10 10 0 6 -4 10 -10 10 -5 0
-10 -4 -10 -10z"/>
<path d="M570 10 c0 -5 5 -10 10 -10 6 0 10 5 10 10 0 6 -4 10 -10 10 -5 0
-10 -4 -10 -10z"/>
</g>
</svg>
