<svg xmlns="http://www.w3.org/2000/svg" version="1.1" viewBox="0 0 41 51.25" x="0px" y="0px"><title>upload-1</title><path d="M20.518 2.295c-0.101 0-0.194 0.038-0.249 0.094l-6.447 6.447c-0.151 0.142-0.149 0.33-0.005 0.476 0 0 0 0.002 0 0.002h0.002c0.146 0.146 0.353 0.146 0.499 0l5.832-5.832v19.043c0 0.206 0.151 0.357 0.357 0.357s0.357-0.151 0.357-0.357v-19.033l5.832 5.832c0.075 0.075 0.155 0.105 0.254 0.105s0.179-0.030 0.254-0.105c0.146-0.146 0.146-0.353 0-0.499l-6.436-6.436c-0.055-0.055-0.149-0.094-0.249-0.094zM10.98 14.963c-2.304 0-4.176 1.873-4.176 4.178v15.389c0 2.304 1.871 4.178 4.176 4.178h19.040c2.315 0 4.178-1.863 4.178-4.178v-15.382c0-2.305-1.873-4.178-4.178-4.178h-3.084c-0.204 0-0.357 0.154-0.357 0.359s0.151 0.357 0.357 0.357h3.084c1.906 0 3.471 1.562 3.471 3.469v15.389c0 1.907-1.565 3.469-3.471 3.469h-19.040c-1.906 0-3.469-1.563-3.469-3.469v-15.396c0-1.906 1.563-3.469 3.469-3.469h3.084c0.204 0 0.357-0.154 0.357-0.359s-0.151-0.357-0.357-0.357h-3.084z"/><text x="0" y="56" fill="#000000" font-size="5px" font-weight="bold" font-family="'Helvetica Neue', Helvetica, Arial-Unicode, Arial, Sans-serif">Created by vectlab</text><text x="0" y="61" fill="#000000" font-size="5px" font-weight="bold" font-family="'Helvetica Neue', Helvetica, Arial-Unicode, Arial, Sans-serif">from the Noun Project</text></svg>